<svg aria-hidden="true" style="position: absolute; width: 0; height: 0; overflow: hidden;" version="1.1" xmlns="http://www.w3.org/2000/svg" xmlns:xlink="http://www.w3.org/1999/xlink">
<defs>

<symbol id="icon-icons8-visual-studio-code" viewBox="0 0 32 32">
<path fill="#29b6f6" style="fill: var(--color1, #29b6f6)" d="M29.333 7.407v17.187c0 0.847-0.527 1.6-1.32 1.88l-5.88 2.76 0.533-7.233v-12l-0.533-7.233 5.88 2.76c0.793 0.28 1.32 1.033 1.32 1.88z"></path>
<path fill="#0277bd" style="fill: var(--color2, #0277bd)" d="M6 22.597l16.667-12.597v-6.431c0-0.799-0.988-1.172-1.517-0.573l-18.045 16.497c-0.6 0.553-0.566 1.511 0.071 2.021 0 0 0.883 0.821 1.202 1.049 0.491 0.35 1.135 0.39 1.621 0.034z"></path>
<path fill="#0288d1" style="fill: var(--color3, #0288d1)" d="M6 9.403l16.667 12.597v6.431c0 0.799-0.988 1.172-1.517 0.573l-18.045-16.497c-0.6-0.553-0.566-1.511 0.071-2.021 0 0 0.883-0.821 1.202-1.049 0.491-0.35 1.135-0.39 1.621-0.034z"></path>
</symbol>

<symbol id="icon-trello-tile" viewBox="0 0 32 32">
<path fill="#0079bf" style="fill: var(--color4, #0079bf)" d="M0 0h32v32h-32v-32z"></path>
<path fill="#fff" style="fill: var(--color5, #fff)" d="M19.188 5.938h5.375c0.794 0 1.438 0.644 1.438 1.438v8.875c0 0.794-0.644 1.438-1.438 1.438h-5.375c-0.794 0-1.438-0.644-1.438-1.438v-8.875c0-0.794 0.644-1.438 1.438-1.438z"></path>
<path fill="#fff" style="fill: var(--color5, #fff)" d="M7.5 5.938h5.375c0.794 0 1.438 0.644 1.438 1.438v15.625c0 0.794-0.644 1.438-1.438 1.438h-5.375c-0.794 0-1.438-0.644-1.438-1.438v-15.625c0-0.794 0.644-1.438 1.438-1.438z"></path>
</symbol>

<symbol id="icon-figma-1-logo-svgrepo-com" viewBox="0 0 32 32">
<path fill="#0acf83" style="fill: var(--color6, #0acf83)" d="M10.667 32c2.944 0 5.333-2.389 5.333-5.333v-5.333h-5.333c-2.944 0-5.333 2.389-5.333 5.333s2.389 5.333 5.333 5.333z"></path>
<path fill="#a259ff" style="fill: var(--color7, #a259ff)" d="M5.333 16c0-2.944 2.389-5.333 5.333-5.333h5.333v10.667h-5.333c-2.944 0-5.333-2.389-5.333-5.333z"></path>
<path fill="#f24e1e" style="fill: var(--color8, #f24e1e)" d="M5.333 5.333c0-2.944 2.389-5.333 5.333-5.333h5.333v10.667h-5.333c-2.944 0-5.333-2.389-5.333-5.333z"></path>
<path fill="#ff7262" style="fill: var(--color9, #ff7262)" d="M16 0h5.333c2.944 0 5.333 2.389 5.333 5.333s-2.389 5.333-5.333 5.333h-5.333v-10.667z"></path>
<path fill="#1abcfe" style="fill: var(--color10, #1abcfe)" d="M26.667 16c0 2.944-2.389 5.333-5.333 5.333s-5.333-2.389-5.333-5.333 2.389-5.333 5.333-5.333 5.333 2.389 5.333 5.333z"></path>
</symbol>

<symbol id="icon-icons8-github-480" viewBox="0 0 32 32">
<path d="M16 3.2c-7.069 0-12.8 5.731-12.8 12.8 0 5.998 4.13 11.017 9.698 12.405-0.060-0.173-0.098-0.373-0.098-0.622v-2.188c-0.519 0-1.39 0-1.609 0-0.876 0-1.654-0.377-2.032-1.076-0.419-0.778-0.492-1.967-1.531-2.694-0.308-0.242-0.074-0.518 0.282-0.481 0.656 0.186 1.2 0.636 1.712 1.303 0.51 0.669 0.75 0.82 1.702 0.82 0.462 0 1.153-0.027 1.804-0.129 0.35-0.889 0.955-1.707 1.694-2.093-4.262-0.438-6.297-2.559-6.297-5.438 0-1.239 0.528-2.438 1.425-3.449-0.294-1.003-0.665-3.047 0.113-3.826 1.918 0 3.077 1.244 3.356 1.58 0.956-0.327 2.005-0.513 3.108-0.513 1.105 0 2.159 0.186 3.117 0.515 0.275-0.334 1.436-1.582 3.358-1.582 0.781 0.78 0.406 2.833 0.109 3.834 0.892 1.008 1.417 2.204 1.417 3.441 0 2.877-2.031 4.996-6.287 5.437 1.171 0.611 2.026 2.329 2.026 3.622v2.916c0 0.111-0.025 0.191-0.037 0.286 4.988-1.748 8.571-6.484 8.571-12.069 0-7.069-5.731-12.8-12.8-12.8z"></path>
</symbol>

<symbol id="icon-redux" viewBox="0 0 34 32">
<path fill="#764abc" style="fill: var(--color11, #764abc)" d="M23.261 22.26c1.239-0.128 2.179-1.196 2.136-2.478s-1.111-2.307-2.392-2.307h-0.085c-1.325 0.043-2.35 1.153-2.307 2.478 0.043 0.641 0.299 1.196 0.683 1.581-1.452 2.862-3.674 4.956-7.006 6.707-2.264 1.196-4.614 1.623-6.963 1.325-1.922-0.256-3.418-1.111-4.358-2.521-1.367-2.093-1.495-4.358-0.342-6.622 0.812-1.623 2.093-2.82 2.905-3.418-0.171-0.555-0.427-1.495-0.555-2.179-6.195 4.486-5.554 10.552-3.674 13.415 1.41 2.136 4.272 3.461 7.433 3.461 0.854 0 1.709-0.085 2.563-0.299 5.468-1.068 9.612-4.315 11.962-9.143zM30.78 16.962c-3.247-3.802-8.031-5.896-13.5-5.896h-0.683c-0.384-0.769-1.196-1.282-2.093-1.282h-0.085c-1.324 0.043-2.349 1.153-2.307 2.478 0.043 1.282 1.111 2.307 2.392 2.307h0.085c0.94-0.043 1.752-0.641 2.093-1.453h0.769c3.247 0 6.323 0.94 9.1 2.777 2.136 1.41 3.674 3.247 4.528 5.468 0.726 1.794 0.683 3.546-0.085 5.041-1.196 2.264-3.204 3.503-5.853 3.503-1.709 0-3.332-0.513-4.187-0.897-0.47 0.427-1.324 1.111-1.922 1.538 1.837 0.854 3.717 1.324 5.511 1.324 4.101 0 7.134-2.264 8.288-4.529 1.239-2.478 1.153-6.75-2.051-10.381zM9.078 22.986c0.043 1.282 1.111 2.307 2.392 2.307h0.085c1.324-0.043 2.35-1.153 2.307-2.478-0.043-1.282-1.111-2.307-2.392-2.307h-0.085c-0.085 0-0.214 0-0.299 0.043-1.752-2.905-2.478-6.066-2.221-9.484 0.171-2.563 1.025-4.785 2.52-6.622 1.239-1.581 3.631-2.35 5.255-2.392 4.528-0.085 6.451 5.554 6.579 7.818 0.555 0.128 1.495 0.427 2.136 0.641-0.513-6.921-4.785-10.51-8.886-10.51-3.845 0-7.391 2.777-8.801 6.878-1.965 5.468-0.684 10.723 1.709 14.867-0.213 0.299-0.342 0.769-0.299 1.239z"></path>
</symbol>

<symbol id="icon-icons8-git" viewBox="0 0 32 32">
<path fill="#f4511e" style="fill: var(--color12, #f4511e)" d="M28.133 14.733l-10.867-10.867c-0.333-0.333-0.8-0.533-1.267-0.533 0 0 0 0 0 0-0.467 0-0.933 0.2-1.267 0.533l-2.333 2.333 2.733 2.733c0.267-0.133 0.533-0.2 0.867-0.2 1.133 0 2 0.867 2 2 0 0.333-0.067 0.6-0.2 0.867l2.667 2.667c0.267-0.133 0.533-0.2 0.867-0.2 1.133 0 2 0.867 2 2s-0.867 2-2 2c-1.133 0-2-0.867-2-2 0-0.333 0.067-0.6 0.2-0.867l-2.667-2.667c-0.067 0-0.133 0.067-0.2 0.067v6.933c0.8 0.267 1.333 1 1.333 1.867 0 1.133-0.867 2-2 2s-2-0.867-2-2c0-0.867 0.533-1.6 1.333-1.867v-7c-0.8-0.267-1.333-1-1.333-1.867 0-0.333 0.067-0.6 0.2-0.867l-2.733-2.733-7.6 7.667c-0.333 0.333-0.533 0.8-0.533 1.267s0.2 0.933 0.533 1.267l10.867 10.867c0 0 0 0 0 0 0.333 0.333 0.8 0.533 1.267 0.533s0.933-0.2 1.267-0.533l10.867-10.867c0.333-0.333 0.533-0.8 0.533-1.267s-0.2-0.933-0.533-1.267z"></path>
</symbol>

<symbol id="icon-html-icon" viewBox="0 0 28 32">
<path fill="#e44d26" style="fill: var(--color13, #e44d26)" d="M28.216 0l-2.57 28.797-11.555 3.203-11.523-3.198-2.568-28.802h28.216z"></path>
<path fill="#f16529" style="fill: var(--color14, #f16529)" d="M14.107 29.552l9.339-2.589 2.195-24.609h-11.534v27.198z"></path>
<path fill="#ebebeb" style="fill: var(--color15, #ebebeb)" d="M9.112 9.419h4.997v-3.531h-8.859l0.083 0.948 0.867 9.734h7.904v-3.534h-4.669l-0.323-3.617zM9.906 18.336h-3.544l0.495 5.547 7.237 2.008 0.016-0.005v-3.674l-0.016 0.005-3.935-1.063-0.253-2.818z"></path>
<path fill="#fff" style="fill: var(--color5, #fff)" d="M14.096 16.57h4.349l-0.409 4.581-3.94 1.063v3.674l7.242-2.008 0.052-0.596 0.831-9.299 0.086-0.948h-8.211v3.534zM14.096 9.411v0.008h8.531l0.070-0.794 0.161-1.792 0.083-0.948h-8.846v3.526z"></path>
</symbol>

<symbol id="icon-js_react-js_logo_react_react-native_icon" viewBox="0 0 32 32">
<path fill="#00d8ff" style="fill: var(--color16, #00d8ff)" d="M18.651 15.979c0 1.479-1.199 2.677-2.677 2.677s-2.677-1.199-2.677-2.677c0-1.479 1.199-2.677 2.677-2.677s2.677 1.199 2.677 2.677z"></path>
<path fill="#00d8ff" style="fill: var(--color16, #00d8ff)" d="M15.973 22.112c-3.76 0-7.045-0.443-9.504-1.285-1.595-0.544-2.949-1.269-3.915-2.096-1.024-0.875-1.568-1.829-1.568-2.752 0-1.771 1.941-3.504 5.2-4.635 2.667-0.928 6.144-1.445 9.781-1.445 3.573 0 7.003 0.501 9.653 1.419 1.552 0.533 2.859 1.227 3.787 1.995 1.008 0.843 1.541 1.765 1.541 2.667 0 1.84-2.171 3.701-5.669 4.859-2.475 0.821-5.781 1.275-9.307 1.275zM15.973 11.179c-3.451 0-6.864 0.501-9.36 1.371-2.997 1.045-4.341 2.475-4.341 3.429 0 0.992 1.445 2.555 4.613 3.637 2.325 0.795 5.472 1.216 9.088 1.216 3.392 0 6.555-0.427 8.907-1.211 3.291-1.093 4.795-2.656 4.795-3.643 0-0.507-0.384-1.104-1.083-1.685-0.805-0.672-1.979-1.285-3.381-1.771-2.523-0.864-5.803-1.344-9.237-1.344z"></path>
<path fill="#00d8ff" style="fill: var(--color16, #00d8ff)" d="M9.899 29.323c-0.544 0-1.024-0.117-1.429-0.352-1.531-0.885-2.064-3.435-1.419-6.821 0.528-2.779 1.819-6.043 3.637-9.195 1.787-3.093 3.931-5.813 6.048-7.653 1.237-1.077 2.491-1.867 3.621-2.283 1.232-0.453 2.299-0.453 3.077-0.005 1.595 0.917 2.123 3.733 1.376 7.339-0.528 2.56-1.787 5.648-3.547 8.704-1.877 3.253-3.904 5.877-5.861 7.589-1.269 1.109-2.576 1.92-3.771 2.341-0.624 0.224-1.211 0.336-1.733 0.336zM11.237 13.275l0.555 0.32c-1.723 2.987-2.997 6.192-3.488 8.795-0.592 3.12-0.021 4.997 0.8 5.472 0.203 0.117 0.469 0.181 0.795 0.181 1.061 0 2.731-0.672 4.661-2.357 1.851-1.616 3.787-4.133 5.595-7.264 1.696-2.939 2.901-5.893 3.403-8.32 0.699-3.397 0.096-5.477-0.763-5.973-0.437-0.251-1.147-0.219-2 0.096-0.987 0.363-2.101 1.072-3.221 2.048-2.011 1.749-4.064 4.352-5.781 7.328l-0.555-0.325z"></path>
<path fill="#00d8ff" style="fill: var(--color16, #00d8ff)" d="M22.048 29.339c-1.451 0-3.291-0.875-5.211-2.528-2.144-1.845-4.325-4.592-6.149-7.744v0c-1.792-3.093-3.072-6.309-3.611-9.067-0.315-1.611-0.373-3.088-0.171-4.277 0.224-1.296 0.752-2.219 1.536-2.672 1.589-0.923 4.293 0.027 7.045 2.475 1.952 1.733 4 4.368 5.765 7.419 1.883 3.253 3.147 6.32 3.648 8.869 0.325 1.653 0.379 3.189 0.149 4.437-0.245 1.328-0.8 2.272-1.6 2.736-0.4 0.235-0.875 0.352-1.403 0.352zM11.797 18.427c1.728 2.987 3.872 5.691 5.877 7.413 2.405 2.069 4.315 2.517 5.141 2.037 0.859-0.496 1.488-2.528 0.837-5.813-0.48-2.411-1.691-5.344-3.504-8.475-1.701-2.939-3.659-5.461-5.509-7.104-2.592-2.304-4.693-2.821-5.552-2.325-0.437 0.251-0.763 0.885-0.917 1.781-0.176 1.035-0.123 2.357 0.165 3.813 0.512 2.619 1.739 5.696 3.461 8.672v0z"></path>
</symbol>

<symbol id="icon-code_development_logo_nodejs_icon" viewBox="0 0 51 32">
<path fill="#699f63" style="fill: var(--color17, #699f63)" d="M25.459 31.443c-0.165 0-0.328-0.043-0.472-0.126l-1.503-0.889c-0.224-0.126-0.115-0.17-0.041-0.196 0.299-0.104 0.36-0.128 0.68-0.309 0.033-0.019 0.077-0.012 0.112 0.009l1.155 0.686c0.042 0.023 0.101 0.023 0.139 0l4.501-2.598c0.042-0.024 0.069-0.072 0.069-0.122v-5.195c0-0.051-0.027-0.098-0.070-0.124l-4.5-2.596c-0.041-0.024-0.097-0.024-0.139 0l-4.498 2.597c-0.044 0.025-0.071 0.074-0.071 0.123v5.195c0 0.050 0.028 0.097 0.071 0.12l1.233 0.712c0.669 0.335 1.079-0.059 1.079-0.455v-5.129c0-0.072 0.058-0.13 0.131-0.13h0.571c0.071 0 0.13 0.057 0.13 0.13v5.129c0 0.893-0.486 1.405-1.333 1.405-0.26 0-0.465 0-1.037-0.282l-1.18-0.68c-0.291-0.169-0.472-0.484-0.472-0.821v-5.195c0-0.337 0.18-0.653 0.472-0.82l4.501-2.601c0.285-0.161 0.663-0.161 0.946 0l4.501 2.601c0.291 0.169 0.473 0.483 0.473 0.82v5.195c0 0.337-0.181 0.651-0.473 0.821l-4.501 2.599c-0.144 0.083-0.307 0.126-0.474 0.126z"></path>
<path fill="#699f63" style="fill: var(--color17, #699f63)" d="M26.85 27.864c-1.97 0-2.382-0.904-2.382-1.663 0-0.072 0.058-0.13 0.13-0.13h0.582c0.065 0 0.119 0.047 0.129 0.11 0.088 0.592 0.35 0.892 1.541 0.892 0.948 0 1.352-0.215 1.352-0.718 0-0.29-0.114-0.505-1.588-0.65-1.232-0.122-1.993-0.394-1.993-1.379 0-0.908 0.766-1.45 2.049-1.45 1.442 0 2.156 0.5 2.246 1.574 0.003 0.037-0.010 0.073-0.034 0.1-0.025 0.026-0.059 0.041-0.095 0.041h-0.584c-0.061 0-0.114-0.043-0.126-0.102-0.14-0.623-0.481-0.823-1.406-0.823-1.035 0-1.156 0.361-1.156 0.631 0 0.327 0.142 0.423 1.54 0.608 1.383 0.183 2.040 0.442 2.040 1.414-0 0.981-0.818 1.543-2.244 1.543z"></path>
<path fill="#699f63" style="fill: var(--color17, #699f63)" d="M33.341 22.416c0 0.477-0.39 0.867-0.867 0.867-0.473 0-0.867-0.386-0.867-0.867 0-0.491 0.404-0.868 0.867-0.868 0.468 0 0.867 0.377 0.867 0.868zM31.746 22.413c0 0.404 0.326 0.73 0.725 0.73 0.404 0 0.73-0.333 0.73-0.73 0-0.404-0.33-0.725-0.73-0.725-0.395 0-0.725 0.317-0.725 0.725zM32.147 21.929h0.335c0.115 0 0.34 0 0.34 0.257 0 0.179-0.115 0.216-0.184 0.239 0.133 0.009 0.142 0.096 0.161 0.22 0.009 0.078 0.023 0.211 0.050 0.257h-0.206c-0.005-0.046-0.037-0.294-0.037-0.307-0.013-0.055-0.032-0.083-0.101-0.083h-0.17v0.39h-0.188v-0.973h-0zM32.331 22.356h0.151c0.124 0 0.147-0.087 0.147-0.138 0-0.133-0.092-0.133-0.142-0.133h-0.156v0.271z"></path>
<path fill="#333" style="fill: var(--color18, #333)" d="M11.52 11.119c0-0.207-0.109-0.398-0.288-0.501l-4.772-2.746c-0.081-0.047-0.171-0.072-0.263-0.076-0.008 0-0.043 0-0.049 0-0.091 0.004-0.182 0.028-0.264 0.076l-4.772 2.746c-0.178 0.103-0.289 0.293-0.289 0.501l0.010 7.396c0 0.103 0.053 0.199 0.144 0.249 0.089 0.053 0.198 0.053 0.286 0l2.836-1.624c0.179-0.106 0.289-0.295 0.289-0.5v-3.455c0-0.206 0.109-0.397 0.288-0.499l1.208-0.696c0.090-0.052 0.188-0.077 0.289-0.077 0.098 0 0.199 0.025 0.287 0.077l1.207 0.696c0.179 0.102 0.288 0.293 0.288 0.499v3.455c0 0.206 0.111 0.395 0.289 0.5l2.835 1.624c0.089 0.053 0.2 0.053 0.288 0 0.088-0.050 0.143-0.146 0.143-0.249l0.009-7.396z"></path>
<path fill="#333" style="fill: var(--color18, #333)" d="M34.483 0.952c-0.089-0.050-0.198-0.049-0.287 0.003s-0.142 0.146-0.142 0.249v7.324c0 0.072-0.039 0.139-0.101 0.175s-0.139 0.036-0.202 0l-1.195-0.689c-0.178-0.103-0.398-0.103-0.576 0l-4.774 2.755c-0.178 0.103-0.288 0.293-0.288 0.499v5.512c0 0.206 0.11 0.396 0.288 0.499l4.774 2.757c0.178 0.103 0.398 0.103 0.577 0l4.775-2.757c0.178-0.103 0.288-0.293 0.288-0.499v-13.739c0-0.209-0.113-0.402-0.296-0.504l-2.841-1.585zM34.040 14.969c0 0.051-0.028 0.099-0.072 0.125l-1.639 0.945c-0.044 0.026-0.099 0.026-0.144 0l-1.639-0.945c-0.045-0.026-0.072-0.073-0.072-0.125v-1.893c0-0.051 0.027-0.099 0.072-0.125l1.639-0.947c0.045-0.026 0.1-0.026 0.144 0l1.639 0.947c0.044 0.026 0.072 0.073 0.072 0.125l-0 1.893z"></path>
<path fill="#333" style="fill: var(--color18, #333)" d="M50.381 13.027c0.178-0.103 0.287-0.293 0.287-0.498v-1.336c0-0.205-0.109-0.396-0.287-0.499l-4.744-2.754c-0.178-0.104-0.399-0.104-0.578-0.001l-4.773 2.755c-0.178 0.103-0.288 0.293-0.288 0.499v5.51c0 0.207 0.111 0.398 0.291 0.501l4.743 2.703c0.175 0.1 0.389 0.101 0.565 0.003l2.869-1.594c0.091-0.051 0.148-0.146 0.148-0.25s-0.055-0.2-0.145-0.252l-4.803-2.757c-0.090-0.051-0.145-0.147-0.145-0.25v-1.727c0-0.103 0.055-0.198 0.144-0.25l1.495-0.862c0.089-0.051 0.199-0.051 0.288 0l1.496 0.862c0.089 0.051 0.144 0.147 0.144 0.25v1.359c0 0.103 0.055 0.199 0.144 0.25s0.199 0.051 0.289-0.001l2.859-1.661z"></path>
<path fill="#699f63" style="fill: var(--color17, #699f63)" d="M45.278 12.769c0.034-0.020 0.076-0.020 0.111 0l0.916 0.528c0.034 0.020 0.055 0.056 0.055 0.096v1.058c0 0.040-0.021 0.076-0.055 0.096l-0.916 0.528c-0.034 0.020-0.076 0.020-0.111 0l-0.915-0.528c-0.034-0.020-0.055-0.056-0.055-0.096v-1.058c0-0.040 0.021-0.076 0.055-0.096l0.915-0.528z"></path>
<path fill="#000" style="fill: var(--color19, #000)" d="M19.506 7.968c-0.177-0.102-0.396-0.102-0.573 0l-4.747 2.74c-0.178 0.102-0.287 0.292-0.287 0.497v5.484c0 0.205 0.109 0.394 0.287 0.497l4.748 2.742c0.177 0.102 0.396 0.102 0.574 0l4.746-2.742c0.177-0.103 0.287-0.292 0.287-0.497v-5.484c0-0.205-0.109-0.394-0.287-0.496l-4.746-2.74z"></path>
<path fill="#000" style="fill: var(--color19, #000)" d="M24.262 10.708l-4.761-2.74c-0.047-0.027-0.097-0.047-0.149-0.059l-5.345 9.144c0.046 0.052 0.1 0.097 0.16 0.132l4.769 2.742c0.135 0.078 0.296 0.096 0.443 0.055l5.011-9.176c-0.038-0.038-0.081-0.071-0.128-0.098z"></path>
<path fill="#000" style="fill: var(--color19, #000)" d="M18.775 6.961l-0.065 0.037h0.087z"></path>
<path fill="#000" style="fill: var(--color19, #000)" d="M24.265 17.185c0.138-0.080 0.242-0.213 0.281-0.365l-5.219-8.916c-0.136-0.027-0.281-0.007-0.404 0.064l-4.729 2.723 5.108 9.306c0.073-0.010 0.144-0.034 0.21-0.071l4.752-2.742z"></path>
<path fill="#000" style="fill: var(--color19, #000)" d="M24.707 17.096l-0.031-0.054v0.072z"></path>
<path fill="#000" style="fill: var(--color19, #000)" d="M24.265 17.185l-4.752 2.742c-0.065 0.038-0.137 0.061-0.21 0.071l0.095 0.172 5.279-3.055v-0.072l-0.13-0.223c-0.039 0.152-0.142 0.285-0.281 0.365z"></path>
<path fill="#000" style="fill: var(--color19, #000)" d="M24.265 17.185l-4.752 2.742c-0.065 0.038-0.137 0.061-0.21 0.071l0.095 0.172 5.279-3.055v-0.072l-0.13-0.223c-0.039 0.152-0.142 0.285-0.281 0.365z"></path>
</symbol>

<symbol id="icon-apple_logo_icon" viewBox="0 0 26 32">
<path d="M21.761 17.001c0.045 4.843 4.248 6.454 4.295 6.475-0.036 0.114-0.672 2.297-2.215 4.551-1.334 1.949-2.718 3.892-4.899 3.932-2.143 0.039-2.832-1.271-5.281-1.271s-3.214 1.23-5.243 1.31c-2.105 0.080-3.708-2.108-5.052-4.050-2.748-3.973-4.848-11.226-2.028-16.123 1.401-2.431 3.904-3.971 6.621-4.011 2.067-0.039 4.018 1.391 5.281 1.391s3.633-1.72 6.126-1.467c1.043 0.043 3.972 0.421 5.853 3.174-0.152 0.094-3.495 2.040-3.458 6.089zM17.734 5.109c1.117-1.353 1.87-3.236 1.664-5.109-1.611 0.065-3.559 1.073-4.714 2.425-1.035 1.197-1.942 3.113-1.698 4.95 1.795 0.139 3.629-0.912 4.747-2.266z"></path>
</symbol>

<symbol id="icon-icons8-css-logo" viewBox="0 0 32 32">
<path fill="#0277bd" style="fill: var(--color2, #0277bd)" d="M27.333 3.333h-22.667l2 22.667 9.333 2.667 9.333-2.667 2-22.667z"></path>
<path fill="#039be5" style="fill: var(--color20, #039be5)" d="M16 5.333v21.267l7.467-2.133 1.667-19.133z"></path>
<path fill="#fff" style="fill: var(--color5, #fff)" d="M22.067 8.667h-6.067v2.667h3.267l-0.2 2.667h-3.067v2.667h2.933l-0.2 3-2.733 0.933v2.8l5.267-1.733 0.467-7.667z"></path>
<path fill="#eee" style="fill: var(--color21, #eee)" d="M16 8.667v2.667h-5.933l-0.2-2.667h6.133zM12.933 14l0.133 2.667h2.933v-2.667h-3.067zM13.2 18h-2.667l0.2 3.667 5.267 1.733v-2.8l-2.733-0.933-0.067-1.667z"></path>
</symbol>

<symbol id="icon-icons8-express-js" viewBox="0 0 32 32">
<path d="M22.163 16.667l-6.081-8h0.787c0.56 0 1.087 0.261 1.426 0.707l4.706 6.191 4.706-6.191c0.338-0.446 0.865-0.707 1.425-0.707h0.787l-6.081 8 6.365 8.373h-0.787c-0.56 0-1.087-0.261-1.426-0.707l-4.99-6.565-4.99 6.565c-0.339 0.445-0.866 0.707-1.426 0.707h-0.787l6.365-8.373zM2.667 17.333v0.522c0 2.799 1.851 5.355 4.579 5.981 2.959 0.68 5.66-0.831 6.819-3.228 0.18-0.372 0.555-0.609 0.967-0.609h0.685c-0.879 3.103-3.744 5.373-7.138 5.333-4.061-0.048-7.245-3.537-7.245-7.905v-1.905c0-3.618 2.541-6.849 6.114-7.424 4.589-0.739 8.553 2.785 8.553 7.235v2h-13.333zM2.667 16h12v-0.667c0-3.765-3.468-6.72-7.384-5.845-2.747 0.614-4.616 3.18-4.616 6.319v0.193z"></path>
</symbol>

<symbol id="icon-JS" viewBox="0 0 32 32">
<path fill="#f3db4c" style="fill: var(--color22, #f3db4c)" d="M0 16v16h32v-32h-32v16zM24.803 14.54c1.285 0.093 2.222 0.507 2.998 1.328 0.26 0.275 0.776 0.989 0.755 1.046-0.009 0.026-2.212 1.448-2.286 1.476-0.027 0.010-0.093-0.068-0.189-0.222-1.031-1.661-3.529-1.209-3.178 0.575 0.13 0.659 0.493 0.931 2.267 1.696 1.997 0.862 2.938 1.481 3.553 2.337 0.914 1.273 0.975 3.321 0.139 4.682-1.553 2.531-6.448 2.712-8.833 0.327-0.496-0.496-1.071-1.318-0.981-1.402 0.049-0.046 2.362-1.381 2.392-1.381 0.013 0 0.1 0.113 0.194 0.251 0.733 1.073 1.545 1.525 2.744 1.528 1.382 0.003 2.178-0.646 2.049-1.67-0.092-0.739-0.54-1.084-2.49-1.918-2.711-1.16-3.704-2.14-3.968-3.919-0.432-2.911 1.662-4.964 4.832-4.735zM17.36 20.251c-0.009 5.096-0.014 5.58-0.062 5.818-0.426 2.118-1.709 3.211-3.967 3.379-2.133 0.158-3.878-0.742-4.8-2.475l-0.135-0.253 1.204-0.729c0.662-0.401 1.213-0.732 1.224-0.736s0.091 0.114 0.177 0.262c0.546 0.934 1.003 1.254 1.791 1.254 0.897-0 1.329-0.32 1.523-1.129 0.051-0.213 0.055-0.559 0.064-5.588l0.010-5.361h2.981l-0.010 5.559z"></path>
<path fill="#343434" style="fill: var(--color23, #343434)" d="M23.808 14.543c-2.622 0.216-4.216 2.182-3.837 4.733 0.264 1.778 1.257 2.759 3.968 3.919 1.95 0.834 2.398 1.179 2.49 1.918 0.128 1.025-0.667 1.673-2.049 1.67-1.199-0.002-2.012-0.455-2.744-1.528-0.094-0.138-0.182-0.251-0.194-0.251-0.030 0-2.343 1.335-2.392 1.381-0.090 0.084 0.485 0.907 0.981 1.402 2.384 2.385 7.279 2.203 8.833-0.327 0.835-1.361 0.774-3.409-0.139-4.682-0.615-0.857-1.556-1.476-3.553-2.337-1.775-0.766-2.138-1.037-2.267-1.696-0.181-0.919 0.431-1.602 1.431-1.598 0.751 0.002 1.32 0.336 1.747 1.023 0.095 0.154 0.162 0.232 0.189 0.222 0.075-0.029 2.277-1.451 2.286-1.476 0.020-0.057-0.496-0.771-0.755-1.046-0.959-1.013-2.317-1.464-3.993-1.326zM14.38 20.053c-0.009 5.030-0.013 5.375-0.064 5.588-0.194 0.808-0.626 1.128-1.523 1.129-0.787 0-1.245-0.32-1.791-1.254-0.087-0.148-0.166-0.266-0.177-0.262s-0.562 0.336-1.224 0.736l-1.204 0.729 0.135 0.253c0.922 1.733 2.667 2.633 4.8 2.475 2.257-0.168 3.541-1.261 3.967-3.379 0.048-0.237 0.053-0.721 0.062-5.818l0.010-5.559h-2.981l-0.010 5.361z"></path>
</symbol>

<symbol id="icon-mongodb-ar21" viewBox="0 0 32 32">
<path fill="#599636" style="fill: var(--color24, #599636)" d="M4.306 9.374l0.291 0.547c0.066 0.103 0.139 0.192 0.22 0.273l-0-0c0.243 0.243 0.475 0.499 0.683 0.772 0.493 0.647 0.825 1.366 1.063 2.144 0.142 0.475 0.22 0.962 0.226 1.455 0.024 1.473-0.481 2.738-1.502 3.789-0.162 0.163-0.336 0.313-0.522 0.449l-0.012 0.009c-0.101 0-0.149-0.080-0.19-0.149-0.080-0.133-0.125-0.279-0.149-0.427-0.036-0.178-0.059-0.356-0.047-0.541v-0.083c-0.006-0.018-0.095-8.195-0.059-8.237z"></path>
<path fill="#6cac48" style="fill: var(--color25, #6cac48)" d="M4.306 9.357c-0.012-0.024-0.024-0.006-0.036 0.006 0.006 0.119-0.036 0.226-0.101 0.327-0.071 0.101-0.166 0.178-0.261 0.261-0.529 0.457-0.944 1.010-1.277 1.627-0.439 0.831-0.671 1.722-0.736 2.661-0.029 0.339 0.107 1.532 0.214 1.877 0.291 0.915 0.813 1.681 1.493 2.346 0.166 0.16 0.345 0.309 0.529 0.451 0.053 0 0.059-0.047 0.071-0.083 0.021-0.064 0.039-0.142 0.052-0.222l0.001-0.009c0.053-0.297 0.083-0.594 0.119-0.891l-0.065-8.349z"></path>
<path fill="#c2bfbf" style="fill: var(--color26, #c2bfbf)" d="M4.597 19.173c0.012-0.137 0.080-0.249 0.149-0.362-0.071-0.029-0.125-0.089-0.166-0.155-0.036-0.059-0.065-0.133-0.089-0.196-0.083-0.249-0.101-0.511-0.125-0.766v-0.155c-0.029 0.024-0.036 0.226-0.036 0.255-0.018 0.273-0.053 0.541-0.107 0.802-0.018 0.107-0.029 0.214-0.095 0.309 0 0.012 0 0.024 0.006 0.042 0.107 0.315 0.137 0.635 0.155 0.962v0.119c0 0.142-0.006 0.113 0.113 0.16 0.047 0.018 0.101 0.024 0.149 0.059 0.036 0 0.042-0.029 0.042-0.053l-0.018-0.196v-0.547c-0.006-0.095 0.012-0.19 0.024-0.279z"></path>
<path fill="#47474a" style="fill: var(--color27, #47474a)" d="M9.107 16.69v0.566c-0 0.003-0 0.007-0 0.011 0 0.020 0.001 0.039 0.004 0.058l-0-0.002c0.007 0.067 0.048 0.108 0.109 0.127 0.047 0.013 0.105 0.025 0.165 0.033l0.007 0.001c0.034 0.004 0.045 0.019 0.048 0.054 0.004 0.127-0.007 0.142-0.13 0.134-0.286-0.015-0.573-0.019-0.86 0h-0.027c-0.089 0.004-0.097-0.004-0.097-0.093 0-0.015 0.004-0.034 0.004-0.048 0-0.027 0.019-0.041 0.045-0.041 0.060-0.007 0.115-0.022 0.172-0.034 0.078-0.019 0.123-0.067 0.13-0.145 0.011-0.085 0.011-0.175 0.011-0.261l0.004-0.997c0-0.002 0-0.004 0-0.006 0-0.058-0.033-0.109-0.081-0.135l-0.001-0c-0.061-0.034-0.131-0.065-0.205-0.087l-0.008-0.002c-0.022-0.007-0.045-0.011-0.063-0.022-0.054-0.026-0.056-0.074-0.004-0.104 0.019-0.011 0.041-0.019 0.063-0.022 0.25-0.037 0.473-0.096 0.686-0.175l-0.023 0.008c0.045-0.015 0.056-0.011 0.060 0.034 0.004 0.027 0 0.060-0.004 0.085-0.007 0.048-0.007 0.097-0.007 0.142 0 0.019 0.004 0.037 0.022 0.048s0.037 0 0.054-0.011c0.078-0.060 0.156-0.115 0.242-0.163 0.123-0.067 0.253-0.127 0.395-0.145 0.172-0.022 0.32 0.022 0.45 0.134 0.053 0.048 0.1 0.102 0.139 0.161l0.002 0.003c0.037 0.054 0.041 0.056 0.089 0.019 0.142-0.104 0.29-0.197 0.45-0.264 0.167-0.071 0.339-0.082 0.51-0.022 0.175 0.063 0.294 0.186 0.365 0.353 0.060 0.134 0.085 0.272 0.085 0.417v0.997c0 0.067 0.027 0.109 0.093 0.142 0.071 0.027 0.149 0.041 0.223 0.056 0.048 0.011 0.048 0.011 0.048 0.060-0.007 0.123-0.019 0.13-0.138 0.123-0.134-0.008-0.291-0.013-0.448-0.013s-0.314 0.005-0.47 0.014l0.021-0.001c-0.060 0.004-0.060 0.004-0.063-0.056v-0.019c-0.004-0.101-0.004-0.101 0.093-0.123l0.097-0.026c0.066-0.016 0.115-0.075 0.115-0.145v-0l0.011-0.279-0.007-0.729c-0.003-0.069-0.018-0.134-0.042-0.194l0.001 0.004c-0.093-0.227-0.298-0.309-0.495-0.286-0.149 0.015-0.279 0.074-0.402 0.16-0.026 0.019-0.045 0.041-0.041 0.078 0.034 0.238 0.011 0.477 0.015 0.715v0.517c0 0.093 0.037 0.138 0.127 0.16l0.172 0.037c0.026 0.004 0.041 0.015 0.041 0.045v0.027c-0.004 0.104-0.011 0.109-0.115 0.108-0.298-0.015-0.596-0.011-0.889 0-0.101 0.004-0.109-0.007-0.104-0.109 0.004-0.060 0.011-0.063 0.067-0.074l0.123-0.022c0.109-0.022 0.149-0.063 0.156-0.179l0.011-0.249-0.007-0.748c-0.007-0.093-0.027-0.182-0.078-0.268-0.074-0.138-0.191-0.208-0.35-0.216-0.16-0.011-0.301 0.048-0.436 0.123-0.093 0.054-0.134 0.119-0.127 0.227v0.543zM16.118 16.712v0.525c0.001 0.040 0.003 0.079 0.008 0.117l-0.001-0.005c0.003 0.051 0.040 0.093 0.089 0.104l0.001 0c0.058 0.018 0.125 0.030 0.195 0.033l0.002 0c0.037 0.004 0.045 0.019 0.048 0.048v0.026c-0.004 0.13-0.019 0.145-0.145 0.138-0.283-0.019-0.566-0.015-0.848 0l-0.109 0.004c-0.022 0-0.027-0.011-0.034-0.026-0.005-0.023-0.008-0.050-0.008-0.078s0.003-0.055 0.009-0.081l-0 0.003c0.004-0.022 0.019-0.027 0.041-0.034 0.054-0.007 0.101-0.019 0.152-0.027 0.093-0.022 0.127-0.060 0.13-0.156l0.011-0.313v-0.915c0-0.067-0.026-0.108-0.085-0.138-0.067-0.037-0.138-0.063-0.212-0.089-0.022-0.007-0.045-0.015-0.063-0.026-0.048-0.034-0.054-0.082-0.007-0.119 0.020-0.017 0.046-0.028 0.074-0.030l0-0c0.238-0.037 0.469-0.089 0.692-0.179 0.026-0.011 0.037-0.004 0.048 0.019s0.015 0.048 0.011 0.074l-0.011 0.175c0 0.022-0.011 0.054 0.007 0.063 0.022 0.015 0.037-0.019 0.056-0.027 0.105-0.088 0.223-0.165 0.351-0.226l0.010-0.004c0.115-0.054 0.234-0.089 0.368-0.082 0.249 0.015 0.428 0.142 0.543 0.361 0.060 0.115 0.085 0.242 0.097 0.372l0.011 0.272 0.004 0.822c0.004 0.063 0.026 0.104 0.089 0.127 0.057 0.020 0.124 0.037 0.194 0.048l0.007 0.001c0.060 0.007 0.063 0.019 0.067 0.074v0.019c-0.007 0.127-0.015 0.13-0.142 0.123-0.125-0.007-0.27-0.011-0.417-0.011s-0.292 0.004-0.437 0.012l0.020-0.001c-0.037 0.004-0.074 0-0.109 0.004-0.022 0-0.037-0.004-0.041-0.026-0.007-0.048-0.015-0.097-0.004-0.149 0.004-0.022 0.015-0.034 0.041-0.037l0.172-0.027c0.060-0.015 0.093-0.054 0.101-0.109l0.007-0.104-0.004-0.778c0-0.089-0.004-0.179-0.022-0.268-0.045-0.191-0.19-0.327-0.387-0.346-0.172-0.019-0.327 0.026-0.469 0.119-0.071 0.045-0.101 0.108-0.101 0.186v0.562c0-0.011 0-0.011 0.004-0.011z"></path>
<path fill="#c2bfbf" style="fill: var(--color26, #c2bfbf)" d="M27.017 15.659c-0.041-0.272-0.142-0.514-0.316-0.726-0.151-0.185-0.343-0.329-0.564-0.421l-0.009-0.004c-0.234-0.097-0.484-0.127-0.737-0.134-0.104-0.004-1.526 0.019-1.63 0-0.026-0.004-0.045 0.004-0.060 0.026-0.019 0.027-0.037 0.056-0.048 0.085-0.045 0.101-0.045 0.093 0.063 0.108 0.089 0.015 0.175 0.022 0.261 0.048 0.078 0.026 0.134 0.071 0.152 0.156 0.007 0.041 0.015 1.351 0.015 1.961l-0.015 0.436c-0.004 0.034-0.007 0.067-0.019 0.097-0.015 0.045-0.041 0.082-0.085 0.101-0.046 0.022-0.099 0.037-0.155 0.041l-0.001 0c-0.101 0.011-0.115 0.015-0.149 0.127l-0.011 0.041c-0.007 0.048-0.004 0.056 0.045 0.056l1.113 0.011 0.436-0.007 0.301-0.037c0.342-0.063 0.648-0.205 0.908-0.432 0.146-0.13 0.266-0.285 0.353-0.46l0.004-0.009c0.104-0.208 0.149-0.436 0.16-0.666 0.019-0.13 0.011-0.264-0.011-0.398zM26.477 16.187c-0.015 0.238-0.063 0.469-0.186 0.677-0.156 0.272-0.38 0.462-0.688 0.528-0.134 0.027-0.268 0.041-0.408 0.022-0.101-0.011-0.197-0.022-0.29-0.056-0.167-0.060-0.227-0.163-0.231-0.327l-0.004-2.244c0-0.134 0.060-0.163 0.156-0.167 0.145-0.011 0.294-0.007 0.439 0.007 0.166 0.016 0.319 0.055 0.461 0.113l-0.011-0.004c0.113 0.048 0.21 0.109 0.295 0.184l-0.001-0.001c0.201 0.172 0.335 0.387 0.408 0.64 0.060 0.205 0.071 0.413 0.060 0.621zM30.11 16.552c0-0.022 0-0.041-0.004-0.063-0.034-0.205-0.142-0.361-0.309-0.48-0.108-0.078-0.231-0.13-0.357-0.167-0.022-0.007-0.041-0.015-0.063-0.019 0.004-0.019 0.015-0.022 0.026-0.026 0.074-0.037 0.145-0.078 0.208-0.134 0.115-0.097 0.191-0.216 0.231-0.361 0.022-0.078 0.022-0.156 0.015-0.238-0.013-0.2-0.117-0.374-0.27-0.483l-0.002-0.001c-0.172-0.127-0.372-0.179-0.581-0.182-0.402-0.007-0.807 0-1.209 0-0.115 0-0.231 0.007-0.35-0.011-0.022-0.004-0.054-0.011-0.071 0.015-0.027 0.048-0.060 0.097-0.071 0.152-0.004 0.026 0.004 0.041 0.034 0.045l0.257 0.037c0.101 0.015 0.172 0.071 0.179 0.16 0.007 0.056 0.011 0.12 0.011 0.185 0 0 0 0.001 0 0.001v-0l-0.007 0.696-0.004 1.377c0 0.082-0.011 0.16-0.026 0.242-0.008 0.053-0.046 0.096-0.096 0.111l-0.001 0c-0.074 0.022-0.145 0.045-0.223 0.045-0.003-0-0.006-0-0.009-0-0.041 0-0.075 0.026-0.088 0.063l-0 0.001c-0.015 0.034-0.027 0.071-0.034 0.104-0.007 0.045 0.004 0.060 0.048 0.054 0.034-0.004 1.262 0.026 1.492 0.004 0.138-0.015 0.272-0.034 0.409-0.074 0.234-0.074 0.45-0.182 0.621-0.365 0.142-0.149 0.223-0.328 0.231-0.536 0.011-0.048 0.011-0.097 0.011-0.149zM28.305 15.027l0.011-0.298c0-0.056 0.022-0.082 0.078-0.093 0.089-0.019 0.179-0.011 0.268-0.007 0.089 0.007 0.175 0.019 0.264 0.045 0.163 0.048 0.29 0.142 0.365 0.298 0.032 0.066 0.052 0.144 0.052 0.227v0c0.004 0.104-0.004 0.205-0.045 0.305-0.063 0.138-0.163 0.227-0.309 0.253s-0.558 0.015-0.621 0.015c-0.056 0-0.060-0.007-0.060-0.063v-0.35c-0.005-0.057-0.008-0.124-0.008-0.192 0-0.048 0.001-0.095 0.004-0.143l-0 0.007zM29.514 17.029c-0.063 0.167-0.179 0.283-0.342 0.346-0.089 0.034-0.179 0.054-0.272 0.048-0.115-0.004-0.231 0-0.346-0.022-0.156-0.034-0.227-0.182-0.238-0.29-0.019-0.19-0.007-0.383-0.011-0.525v-0.491c0-0.060 0.007-0.078 0.071-0.078l0.35 0.004 0.238 0.027c0.167 0.037 0.32 0.101 0.439 0.231 0.097 0.104 0.149 0.231 0.16 0.368 0.011 0.13 0.004 0.257-0.045 0.38z"></path>
<path fill="#47474a" style="fill: var(--color27, #47474a)" d="M20.059 15.908l0.097 0.015c0.104 0.004 0.227-0.034 0.264-0.179 0.010-0.032 0.015-0.068 0.015-0.106s-0.006-0.074-0.016-0.109l0.001 0.003c-0.022 0-0.034 0.019-0.045 0.026-0.056 0.045-0.119 0.071-0.186 0.078-0.134 0.015-0.268 0.007-0.398-0.041l-0.182-0.063c-0.1-0.034-0.215-0.053-0.335-0.053-0.021 0-0.042 0.001-0.063 0.002l0.003-0c-0.19 0.015-0.368 0.078-0.536 0.167-0.179 0.097-0.305 0.242-0.365 0.439-0.034 0.115-0.037 0.234-0.022 0.353 0.037 0.272 0.179 0.462 0.432 0.562 0.015 0.004 0.026 0.011 0.041 0.015 0.034 0.019 0.037 0.037 0.007 0.063l-0.093 0.063-0.223 0.138c-0.056 0.034-0.063 0.060-0.045 0.119 0.023 0.072 0.064 0.132 0.118 0.178l0.001 0c0.049 0.042 0.106 0.077 0.167 0.103l0.004 0.002c0.041 0.019 0.041 0.027 0.004 0.060l-0.212 0.152c-0.071 0.054-0.142 0.109-0.201 0.179-0.061 0.066-0.099 0.154-0.099 0.251 0 0.030 0.004 0.059 0.010 0.086l-0-0.003c0.029 0.134 0.098 0.248 0.193 0.334l0.001 0c0.094 0.087 0.209 0.151 0.337 0.185l0.006 0.001c0.208 0.060 0.424 0.063 0.636 0.022 0.305-0.056 0.572-0.191 0.782-0.42 0.145-0.152 0.231-0.331 0.238-0.545 0.001-0.010 0.001-0.022 0.001-0.034 0-0.246-0.17-0.453-0.399-0.508l-0.004-0.001-0.201-0.037-0.614-0.054c-0.067-0.004-0.134-0.015-0.19-0.048-0.071-0.045-0.089-0.13-0.045-0.186 0.034-0.041 0.074-0.067 0.127-0.071l0.119-0.011c0.245-0.026 0.462-0.13 0.629-0.287l-0.001 0.001c0.090-0.083 0.156-0.191 0.189-0.312l0.001-0.005c0.045-0.16 0.045-0.327 0.007-0.49-0.011-0.041-0.007-0.045 0.045-0.037zM19.147 17.762c0.022 0.004 0.045 0 0.067 0 0.156 0.007 0.316 0.019 0.469 0.060 0.057 0.017 0.105 0.036 0.151 0.058l-0.006-0.003c0.149 0.082 0.205 0.223 0.186 0.376-0.022 0.167-0.115 0.286-0.261 0.365-0.097 0.054-0.205 0.078-0.316 0.089-0.041 0.004-0.078 0-0.119 0-0.13 0.004-0.257-0.011-0.38-0.063-0.085-0.034-0.156-0.082-0.219-0.149-0.13-0.13-0.191-0.368 0.004-0.562 0.119-0.109 0.253-0.186 0.424-0.172zM19.571 16.601c-0.078 0.197-0.249 0.257-0.42 0.231-0.156-0.022-0.272-0.108-0.346-0.249-0.097-0.19-0.123-0.387-0.067-0.592 0.041-0.152 0.134-0.268 0.298-0.294 0.208-0.037 0.408 0.037 0.514 0.246 0.054 0.101 0.078 0.223 0.078 0.398-0.004 0.071-0.019 0.167-0.056 0.261zM14.882 16.347c-0.034-0.201-0.108-0.383-0.246-0.536-0.205-0.227-0.465-0.327-0.759-0.328-0.257-0.004-0.498 0.071-0.714 0.205-0.21 0.127-0.366 0.326-0.434 0.563l-0.002 0.007c-0.063 0.216-0.060 0.436-0.011 0.655 0.13 0.588 0.584 0.841 1.127 0.804 0.16-0.011 0.313-0.063 0.457-0.134 0.216-0.101 0.372-0.261 0.48-0.473 0.085-0.175 0.123-0.361 0.119-0.573l-0.019-0.19zM14.354 17.174c-0.055 0.169-0.203 0.293-0.381 0.312l-0.002 0c-0.163 0.022-0.316-0.019-0.454-0.115-0.099-0.073-0.178-0.167-0.232-0.275l-0.002-0.004c-0.152-0.313-0.179-0.64-0.101-0.975 0.027-0.108 0.081-0.2 0.156-0.272l0-0c0.138-0.127 0.298-0.156 0.477-0.119 0.172 0.037 0.301 0.13 0.408 0.272s0.156 0.305 0.186 0.477c0.015 0.085 0.015 0.175 0.019 0.231 0 0.179-0.015 0.327-0.071 0.469zM23.013 16.377c-0.027-0.216-0.108-0.413-0.261-0.577-0.201-0.219-0.462-0.313-0.752-0.316-0.249-0.004-0.48 0.067-0.692 0.19-0.238 0.142-0.402 0.342-0.465 0.614-0.025 0.096-0.040 0.206-0.040 0.32 0 0.206 0.048 0.4 0.133 0.573l-0.003-0.008c0.123 0.261 0.331 0.428 0.607 0.502 0.305 0.082 0.596 0.045 0.878-0.093 0.246-0.119 0.42-0.305 0.521-0.558 0.060-0.149 0.082-0.309 0.085-0.495 0.004-0.034-0.004-0.093-0.011-0.152zM22.5 17.125c-0.060 0.201-0.186 0.331-0.398 0.361-0.156 0.022-0.305-0.015-0.439-0.104-0.115-0.078-0.197-0.182-0.257-0.305-0.067-0.13-0.104-0.268-0.119-0.409-0.022-0.175-0.022-0.346 0.019-0.521 0.009-0.038 0.020-0.072 0.035-0.104l-0.001 0.003c0.104-0.261 0.335-0.38 0.607-0.32 0.182 0.041 0.32 0.142 0.424 0.294 0.101 0.149 0.149 0.313 0.172 0.49 0.011 0.071 0.015 0.145 0.011 0.208 0 0.145-0.011 0.279-0.054 0.409z"></path>
</symbol>

<symbol id="icon-TypeScript" viewBox="0 0 32 32">
<path fill="#3178c6" style="fill: var(--color28, #3178c6)" d="M3.125 0h25.75c1.726 0 3.125 1.399 3.125 3.125v25.75c0 1.726-1.399 3.125-3.125 3.125h-25.75c-1.726 0-3.125-1.399-3.125-3.125v-25.75c0-1.726 1.399-3.125 3.125-3.125z"></path>
<path fill="#fff" style="fill: var(--color5, #fff)" d="M19.809 25.464v3.129c0.509 0.261 1.11 0.456 1.805 0.587s1.426 0.196 2.196 0.196c0.75 0 1.462-0.072 2.137-0.215s1.267-0.38 1.775-0.709c0.509-0.329 0.911-0.759 1.208-1.291s0.445-1.188 0.445-1.97c0-0.567-0.085-1.064-0.254-1.491s-0.414-0.807-0.734-1.139c-0.32-0.332-0.703-0.631-1.149-0.895s-0.95-0.513-1.511-0.748c-0.411-0.169-0.779-0.334-1.105-0.494s-0.603-0.323-0.831-0.489c-0.228-0.166-0.404-0.342-0.528-0.528s-0.186-0.396-0.186-0.631c0-0.215 0.055-0.409 0.166-0.582s0.267-0.321 0.47-0.445c0.202-0.124 0.45-0.22 0.743-0.288s0.619-0.103 0.978-0.103c0.261 0 0.536 0.020 0.826 0.059s0.582 0.099 0.875 0.181c0.293 0.081 0.579 0.184 0.856 0.308s0.533 0.267 0.768 0.43v-2.924c-0.476-0.182-0.996-0.318-1.56-0.406s-1.211-0.132-1.942-0.132c-0.743 0-1.448 0.080-2.113 0.24s-1.25 0.409-1.756 0.748c-0.505 0.339-0.905 0.771-1.198 1.296s-0.44 1.152-0.44 1.882c0 0.932 0.269 1.727 0.807 2.386s1.355 1.216 2.45 1.672c0.43 0.176 0.831 0.349 1.203 0.518s0.693 0.346 0.963 0.528c0.271 0.183 0.484 0.381 0.641 0.596s0.235 0.459 0.235 0.733c0 0.202-0.049 0.389-0.147 0.562s-0.246 0.323-0.445 0.45-0.447 0.227-0.743 0.298c-0.297 0.072-0.644 0.108-1.042 0.108-0.678 0-1.35-0.119-2.015-0.357s-1.281-0.595-1.849-1.071zM14.549 17.755h4.014v-2.568h-11.188v2.568h3.994v11.432h3.18z"></path>
</symbol>

<symbol id="icon-icons8-vite" viewBox="0 0 32 32">
<path fill="#9575cd" style="fill: var(--color1, #9575cd)" d="M29.907 6.651l-13.225 23.648c-0.273 0.488-0.975 0.491-1.252 0.005l-13.487-23.651c-0.302-0.529 0.151-1.171 0.751-1.063l13.239 2.367c0.085 0.015 0.171 0.015 0.255-0.001l12.962-2.363c0.598-0.109 1.053 0.527 0.756 1.058z"></path>
<path fill="#fbc02d" style="fill: var(--color2, #fbc02d)" d="M22.383 2.007l-9.703 1.901c-0.159 0.031-0.277 0.167-0.287 0.329l-0.597 10.081c-0.014 0.237 0.204 0.422 0.436 0.368l2.701-0.623c0.253-0.058 0.481 0.164 0.429 0.419l-0.803 3.93c-0.054 0.265 0.194 0.491 0.453 0.412l1.669-0.507c0.259-0.079 0.507 0.148 0.453 0.413l-1.275 6.173c-0.080 0.386 0.434 0.597 0.648 0.265l0.143-0.221 7.907-15.779c0.133-0.264-0.096-0.565-0.386-0.509l-2.781 0.537c-0.261 0.051-0.483-0.193-0.41-0.449l1.815-6.292c0.073-0.255-0.149-0.499-0.411-0.447z"></path>
</symbol>



<symbol id="next-js"  viewBox="0 0 256 256" preserveAspectRatio="xMidYMid"><path d="M119.617.069c-.55.05-2.302.225-3.879.35-36.36 3.278-70.419 22.894-91.99 53.044-12.012 16.764-19.694 35.78-22.597 55.922C.125 116.415 0 118.492 0 128.025c0 9.533.125 11.61 1.151 18.64 6.957 48.065 41.165 88.449 87.56 103.411 8.309 2.678 17.067 4.504 27.027 5.605 3.879.425 20.645.425 24.524 0 17.192-1.902 31.756-6.155 46.12-13.486 2.202-1.126 2.628-1.426 2.327-1.677-.2-.15-9.584-12.735-20.845-27.948l-20.47-27.648-25.65-37.956c-14.114-20.868-25.725-37.932-25.825-37.932-.1-.025-.2 16.84-.25 37.431-.076 36.055-.1 37.506-.551 38.357-.65 1.226-1.151 1.727-2.202 2.277-.801.4-1.502.475-5.28.475h-4.33l-1.15-.725a4.679 4.679 0 0 1-1.677-1.827l-.526-1.126.05-50.166.075-50.192.776-.976c.4-.525 1.251-1.2 1.852-1.526 1.026-.5 1.426-.55 5.755-.55 5.105 0 5.956.2 7.282 1.651.376.4 14.264 21.318 30.88 46.514 16.617 25.195 39.34 59.599 50.5 76.488l20.27 30.7 1.026-.675c9.084-5.905 18.693-14.312 26.3-23.07 16.191-18.59 26.626-41.258 30.13-65.428 1.026-7.031 1.151-9.108 1.151-18.64 0-9.534-.125-11.61-1.151-18.641-6.957-48.065-41.165-88.449-87.56-103.411-8.184-2.652-16.892-4.479-26.652-5.58-2.402-.25-18.943-.525-21.02-.325Zm52.401 77.414c1.201.6 2.177 1.752 2.527 2.953.2.65.25 14.562.2 45.913l-.074 44.987-7.933-12.16-7.958-12.16v-32.702c0-21.143.1-33.028.25-33.603.4-1.401 1.277-2.502 2.478-3.153 1.026-.525 1.401-.575 5.33-.575 3.704 0 4.354.05 5.18.5Z"/></symbol>

<symbol id="sass" fill="#000000"  viewBox="0 -4 32 32"><path d="m27.533 13.796c.039-.001.085-.002.132-.002.834 0 1.623.194 2.323.54l-.031-.014c.638.311 1.162.771 1.541 1.335l.009.014c.299.436.477.975.477 1.555 0 .042-.001.084-.003.125v-.006c-.031.579-.294 1.09-.698 1.448l-.002.002c-.221.217-.488.387-.785.495l-.015.005q-.25.05-.275-.075t.225-.275c.452-.274.779-.716.898-1.237l.003-.013c.003-.042.005-.091.005-.141 0-.311-.074-.605-.205-.865l.005.011c-.217-.453-.541-.825-.94-1.094l-.01-.006c-.597-.384-1.313-.636-2.083-.699l-.016-.001c-.262-.039-.564-.061-.872-.061-.801 0-1.566.151-2.27.426l.042-.015c.145.339.236.732.249 1.144v.005c-.016.845-.47 1.58-1.145 1.99l-.011.006c-.31.22-.664.413-1.041.563l-.035.012c-.229.112-.498.177-.782.177-.033 0-.065-.001-.097-.003h.005q-.949-.199-.45-1.65c.145-.421.348-.786.605-1.107l-.006.007c.329-.43.69-.807 1.089-1.141l.011-.009-.098-.146c-.183-.312-.351-.675-.486-1.054l-.014-.046q-.15-.5-.25-.949l-.05-.35-.5.949q-.65 1.2-1.25 2.099l-.15.25c.168.408.292.881.348 1.375l.002.025c.004.047.006.103.006.159 0 .758-.374 1.428-.948 1.837l-.007.005c-.274.169-.601.344-.94.5l-.06.025c-.353.153-.762.253-1.191.275h-.009c-.033.002-.072.004-.111.004-.25 0-.487-.057-.699-.158l.01.004c-.127-.109-.207-.269-.207-.448 0-.091.021-.178.058-.255l-.002.004c.4-.561.794-1.049 1.213-1.515l-.013.015 1.1-1.399-.199-.45c-.16-.294-.313-.641-.436-1.001l-.014-.048q-.15-.5-.25-.949l-.05-.35-.5 1.2q-.599 1.399-1.1 2.399-.747 1.5-1.25 2.3l-.1.15q-.599.949-1.15.949t-.747-.7c-.096-.344-.152-.739-.152-1.147 0-.036 0-.072.001-.108v.005l.1-.7v.05q-.4.949-.8 1.749c-.177.346-.359.641-.563.919l.013-.019c-.206.216-.496.35-.817.35-.003 0-.005 0-.008 0-.021.002-.045.002-.069.002-.253 0-.483-.096-.657-.253l.001.001c-.349-.358-.608-.805-.742-1.304l-.005-.021c-.164-.455-.258-.981-.258-1.529 0-.071.002-.141.005-.21v.01c.079-.796.238-1.525.471-2.22l-.021.071-1.799 1.05v.05c.261.542.414 1.178.414 1.85 0 .123-.005.245-.015.365l.001-.016c-.053 1.03-.382 1.973-.913 2.77l.013-.02c-.557.884-1.36 1.567-2.314 1.962l-.033.012c-.537.241-1.165.382-1.825.382-.418 0-.824-.056-1.208-.162l.032.007c-.318-.107-.578-.319-.743-.593l-.003-.006c-.233-.338-.38-.751-.403-1.196v-.006c-.011-.101-.017-.218-.017-.337 0-.513.117-.999.326-1.432l-.009.02c.574-.979 1.368-1.772 2.316-2.33l.03-.016c.671-.465 1.442-.916 2.247-1.309l.106-.047.25-.15q-.45-.35-1.65-1.2c-1.069-.716-1.998-1.439-2.874-2.221l.025.022c-.847-.729-1.464-1.703-1.741-2.812l-.008-.038c-.026-.154-.041-.331-.041-.511 0-.564.145-1.094.399-1.555l-.008.017c.56-1.204 1.336-2.219 2.288-3.035l.012-.01c1.03-.973 2.196-1.82 3.462-2.506l.087-.043c1.131-.653 2.452-1.26 3.829-1.747l.17-.052c1.279-.468 2.756-.742 4.296-.747h.002c.07-.002.153-.004.236-.004 1.241 0 2.415.287 3.459.798l-.046-.021c.9.41 1.574 1.182 1.844 2.126l.006.024c.083.322.13.692.13 1.073 0 .632-.131 1.234-.366 1.78l.011-.029c-.428 1.037-1.037 1.92-1.797 2.647l-.003.003c-.77.763-1.693 1.373-2.718 1.78l-.055.019c-1.074.461-2.321.751-3.63.799l-.019.001c-.192.022-.414.034-.639.034-.592 0-1.163-.085-1.703-.244l.043.011c-.483-.154-.9-.393-1.254-.703l.004.003c-.248-.202-.45-.451-.594-.734l-.006-.013q-.15-.4-.025-.475t.175-.025l.25.25c.279.259.612.463.98.593l.02.006c.506.176 1.09.278 1.697.278.195 0 .387-.01.576-.031l-.023.002c1.618-.191 3.077-.743 4.336-1.573l-.037.023c1.064-.633 1.925-1.503 2.531-2.54l.018-.034c.301-.442.481-.988.481-1.576 0-.361-.068-.707-.192-1.025l.007.019c-.374-.591-.979-1.007-1.685-1.122l-.014-.002c-.548-.135-1.178-.213-1.825-.213-.521 0-1.031.05-1.524.146l.05-.008c-1.687.304-3.195.825-4.586 1.541l.091-.043q-6.148 3.1-6.349 6.349v.049c0 .873.343 1.666.902 2.252l-.001-.001c.637.708 1.341 1.333 2.11 1.873l.039.026c.701.524 1.321 1.065 1.898 1.649l.001.002.1.1 3.2-1.749c.365-.528.804-.974 1.308-1.334l.016-.011c.4-.336.908-.555 1.465-.599l.009-.001c.02-.002.043-.002.067-.002.373 0 .693.225.831.547l.002.006c.105.235.166.51.166.799 0 .088-.006.175-.017.261l.001-.01-.097.493.15-.1c.104-.079.235-.126.377-.126.09 0 .175.019.252.053l-.004-.002c.192.05.331.222.331.426 0 .035-.004.069-.012.102l.001-.003-.15.55q-.45 1.799-.599 2.599c-.05.173-.078.372-.078.578 0 .043.001.085.004.127v-.006q.025.3.075.3t.199-.3l.15-.35q.05 0 0 .05l.55-1.15q1.95-4.298 2.099-4.8l.3-.949q.05-.1.4-.199c.237-.064.508-.101.788-.101.023 0 .046 0 .068.001h-.003q.7 0 .7.35l-.05.25c-.112.308-.223.693-.309 1.087l-.011.063c-.02.129-.032.277-.032.429 0 .202.02.399.059.59l-.003-.019.05.199c.102.417.257.783.46 1.117l-.01-.017q.599-.999 1.15-2.049c.29-.483.56-1.043.777-1.629l.023-.07c.075-.377.161-.695.266-1.005l-.016.056q.05-.15.427-.225c.238-.048.511-.075.79-.075h.036-.002q.7 0 .747.35l-.1.199c-.119.336-.223.74-.293 1.155l-.006.045c-.009.097-.015.209-.015.323 0 .239.024.473.069.699l-.004-.023v.199c.115.436.286.819.51 1.166l-.01-.016.15.35c.835-.41 1.817-.65 2.855-.65h.039-.002zm-21.439 7.253c.695-.718 1.124-1.698 1.124-2.778 0-.417-.064-.819-.182-1.197l.008.028-.8.5c-.816.465-1.522.984-2.161 1.574l.008-.007c-.485.446-.843 1.023-1.019 1.674l-.006.025q-.225.925.225 1.2c.183.084.398.133.623.133.246 0 .479-.058.684-.162l-.009.004c.594-.216 1.097-.559 1.497-.998l.003-.003zm6.697-4.604q.25-.65.55-1.55.4-1.2.275-1.399t-.475-.05c-.278.135-.511.32-.697.547l-.003.004c-.208.263-.406.557-.582.866l-.018.034c-.202.331-.373.712-.492 1.116l-.009.034c-.193.523-.305 1.128-.305 1.758 0 .085.002.169.006.253v-.012q.05.999.32 1.075t.625-.725c.229-.413.433-.893.585-1.396l.014-.054q.149-.354.204-.501zm5.546 2.65c.693-.311 1.181-.966 1.249-1.741l.001-.008v-.05l-.55.7-.999 1.1c-.015.012-.025.03-.025.05 0 .02.01.038.024.05q.048.049.3-.1zm4.299-.95c.756-.216 1.3-.901 1.3-1.712 0-.013 0-.026 0-.039v.002c-.01-.2-.046-.388-.105-.566l.004.015c-.389.346-.708.76-.939 1.227l-.011.023q-.451.899-.252 1.048z"/></symbol>



<symbol id="progr"  
	 viewBox="0 0 512 512" xml:space="preserve">
<g>
	<g>
		<path d="M369.182,0H52.513v512h406.974V90.305L369.182,0z M367.59,54.105l37.792,37.792H367.59V54.105z M420.103,472.615H91.897
			V39.385h236.308v91.897h91.897V472.615z"/>
	</g>
</g>
<g>
	<g>
		<polygon points="327.688,218.445 299.84,246.293 333.177,279.631 299.84,312.969 327.688,340.816 388.875,279.631 		"/>
	</g>
</g>
<g>
	<g>
		<polygon points="212.16,246.293 184.312,218.445 123.125,279.631 184.312,340.816 212.16,312.969 178.823,279.631 		"/>
	</g>
</g>
<g>
	<g>
		<polygon points="254.67,190.359 217.083,368.903 257.33,368.903 294.919,190.359 		"/>
	</g>
</g>
</symbol>
</defs>
</svg>
